<svg width="114" height="23" viewBox="0 0 114 23" fill="none" xmlns="http://www.w3.org/2000/svg">
<g clip-path="url(#clip0_1_108)">
<path d="M14.0389 15.974L11 4H13.6154C14.1306 4 14.6016 4.29074 14.8326 4.75124L21.285 17.6168H17.5807H16.1507C15.1538 17.6168 14.2841 16.9402 14.0389 15.974Z" fill="#F4F4F4"/>
<path d="M10.7085 15.9201L12 10.8532L11.6531 9.4266L11.3062 8L9.04563 12.7804L6.6402 17.5607H7.81337H8.59724C9.59325 17.5607 10.4624 16.8853 10.7085 15.9201Z" fill="#F4F4F4"/>
<path d="M36.8531 11.6641C36.8531 15.5974 34.9132 18 30.8375 18H26.05V5.32825H30.8375C34.9132 5.32825 36.8531 7.7487 36.8531 11.6641ZM35.3225 11.6641C35.3225 8.30041 33.8453 6.55627 30.8909 6.55627H27.5806V16.772H30.8909C33.8453 16.772 35.3225 15.0278 35.3225 11.6641ZM40.0427 18H38.5655V8.81654H39.9715V10.9878C40.4698 9.38606 41.3063 8.72755 42.6767 8.72755C42.9259 8.72755 43.2462 8.76315 43.5132 8.81654V10.098L42.6233 10.0624C41.0572 10.0624 40.0427 11.3082 40.0427 13.5684V18ZM53.0452 18H45.0898V5.32825H46.6204V16.7364H53.0452V18ZM57.4994 18.178C55.4172 18.178 54.2425 17.1101 54.2425 15.4016C54.2425 14.049 55.0968 12.9989 57.3393 12.8032L59.03 12.6608C60.2758 12.554 60.6318 12.287 60.6318 11.6107C60.6318 10.4361 59.9733 9.70641 58.4427 9.70641C57.0189 9.70641 56.2714 10.3115 56.1646 11.6107H54.7409C54.7409 9.7954 55.8621 8.63857 58.4249 8.63857C60.9877 8.63857 62.109 9.7954 62.109 11.6107V15.6507C62.109 16.8966 62.2158 17.6974 62.3937 18H61.0945C60.8098 17.6085 60.703 17.2347 60.703 16.2559C60.2047 17.5373 59.119 18.178 57.4994 18.178ZM57.891 17.1457C59.7063 17.1457 60.6318 15.7041 60.6318 13.9956V13.0879C60.4182 13.3727 59.8487 13.5506 59.03 13.6218L57.7664 13.7286C56.307 13.8354 55.7197 14.4583 55.7197 15.3126C55.7197 16.3626 56.3604 17.1457 57.891 17.1457ZM76.139 18H74.7152V12.1269C74.7152 10.5963 74.2525 9.83099 73.0245 9.83099C71.7787 9.83099 70.8354 10.9878 70.8354 12.8388V18H69.4294V12.1269C69.4294 10.5963 68.9489 9.83099 67.7565 9.83099C66.5106 9.83099 65.603 10.9878 65.603 12.8388V18H64.1792V8.81654H65.5852V10.5073C66.0123 9.36826 66.92 8.63857 68.1836 8.63857C69.5896 8.63857 70.4083 9.29707 70.7108 10.6141C71.1736 9.31487 72.1702 8.63857 73.4338 8.63857C75.267 8.63857 76.139 9.70641 76.139 11.9311V18ZM82.8544 18.178C81.1992 18.178 80.1314 17.4661 79.6152 16.1669V18H78.2092V5.32825H79.6864V10.5607C80.2025 9.27927 81.2882 8.63857 82.8544 8.63857C85.3282 8.63857 86.841 10.4005 86.841 13.4083C86.841 16.416 85.3282 18.178 82.8544 18.178ZM82.5162 17.0389C84.207 17.0389 85.3638 15.9177 85.3638 13.4083C85.3638 10.8988 84.207 9.7776 82.5162 9.7776C80.8432 9.7776 79.6864 10.8988 79.6864 13.4083C79.6864 15.9177 80.8432 17.0389 82.5162 17.0389ZM92.1853 18.178C89.7115 18.178 88.1987 16.416 88.1987 13.4083C88.1987 10.4005 89.7115 8.63857 92.1853 8.63857C93.7515 8.63857 94.8372 9.27927 95.3533 10.5607V5.32825H96.8305V18H95.4245V16.1669C94.9083 17.4661 93.8227 18.178 92.1853 18.178ZM92.5057 17.0389C94.1964 17.0389 95.3533 15.9177 95.3533 13.4083C95.3533 10.8988 94.1964 9.7776 92.5057 9.7776C90.8327 9.7776 89.6759 10.8988 89.6759 13.4083C89.6759 15.9177 90.8327 17.0389 92.5057 17.0389ZM101.801 18.178C99.7188 18.178 98.5442 17.1101 98.5442 15.4016C98.5442 14.049 99.3984 12.9989 101.641 12.8032L103.332 12.6608C104.577 12.554 104.933 12.287 104.933 11.6107C104.933 10.4361 104.275 9.70641 102.744 9.70641C101.321 9.70641 100.573 10.3115 100.466 11.6107H99.0425C99.0425 9.7954 100.164 8.63857 102.727 8.63857C105.289 8.63857 106.411 9.7954 106.411 11.6107V15.6507C106.411 16.8966 106.517 17.6974 106.695 18H105.396C105.111 17.6085 105.005 17.2347 105.005 16.2559C104.506 17.5373 103.421 18.178 101.801 18.178ZM102.193 17.1457C104.008 17.1457 104.933 15.7041 104.933 13.9956V13.0879C104.72 13.3727 104.15 13.5506 103.332 13.6218L102.068 13.7286C100.609 13.8354 100.021 14.4583 100.021 15.3126C100.021 16.3626 100.662 17.1457 102.193 17.1457Z" fill="#F4F4F4"/>
</g>
<defs>
<clipPath id="clip0_1_108">
<rect width="113.773" height="22.4" fill="white"/>
</clipPath>
</defs>
</svg>
