<svg width="12" height="12" viewBox="0 0 12 12" fill="currentColor" xmlns="http://www.w3.org/2000/svg">
<circle cx="6" cy="6" r="6" fill="#525C6A"/>
<path d="M5.90919 9.563C5.53119 9.563 5.31519 9.329 5.31519 9.032C5.31519 8.735 5.53119 8.501 5.90919 8.501C6.28719 8.501 6.49419 8.735 6.49419 9.032C6.49419 9.329 6.28719 9.563 5.90919 9.563ZM6.30519 7.646H5.50419V7.358C5.50419 5.72 7.13319 5.9 7.13319 4.802C7.13319 4.172 6.64719 3.776 5.99919 3.776C5.25219 3.776 4.86519 4.226 4.78419 5.036H3.86619C3.86619 3.758 4.63119 3.002 5.99919 3.002C7.33119 3.002 8.13219 3.758 8.13219 4.802C8.13219 6.242 6.30519 6.188 6.30519 7.358V7.646Z" fill="#F4F4F4"/>
</svg>
