<svg width="10" height="8" viewBox="0 0 10 8" fill="none" xmlns="http://www.w3.org/2000/svg">
<path d="M1 3.55875C0.756304 3.55875 0.55875 3.7563 0.55875 4C0.55875 4.2437 0.756304 4.44125 1 4.44125L1 3.55875ZM9.31201 4.31201C9.48433 4.13969 9.48433 3.86031 9.31201 3.68799L6.50391 0.879891C6.33159 0.707572 6.05221 0.707572 5.87989 0.879891C5.70757 1.05221 5.70757 1.33159 5.87989 1.50391L8.37598 4L5.87989 6.49609C5.70757 6.66841 5.70757 6.94779 5.87989 7.12011C6.05221 7.29243 6.33159 7.29243 6.50391 7.12011L9.31201 4.31201ZM1 4.44125L9 4.44125L9 3.55875L1 3.55875L1 4.44125Z" fill="#A6B1BB"/>
</svg>
