<svg width="20" height="20" viewBox="0 0 20 20" fill="none" xmlns="http://www.w3.org/2000/svg">
<rect width="20" height="20" fill="#E7E9EB"/>
<g clip-path="url(#clip0_1_117)">
<path d="M16.2863 2.57204H3.71489C3.08371 2.57204 2.57204 3.08371 2.57204 3.71489V16.2863C2.57204 16.9175 3.08371 17.4292 3.71489 17.4292H16.2863C16.9175 17.4292 17.4292 16.9175 17.4292 16.2863V3.71489C17.4292 3.08371 16.9175 2.57204 16.2863 2.57204Z" stroke="#919DAA" stroke-width="1.28652" stroke-linecap="round" stroke-linejoin="round"/>
<path d="M2.57204 6.57204H17.4292M6.57204 6.57204L8.28632 2.57204M11.7149 6.57204L13.4292 2.57204M8.27489 14.0692V9.69204C8.27809 9.62477 8.29774 9.55932 8.33214 9.50142C8.36653 9.44352 8.41461 9.39496 8.47216 9.35998C8.5297 9.325 8.59495 9.30468 8.66218 9.3008C8.72941 9.29693 8.79657 9.30962 8.85775 9.33775L12.652 11.5206C12.7135 11.5585 12.7642 11.6114 12.7994 11.6744C12.8346 11.7375 12.8531 11.8084 12.8531 11.8806C12.8531 11.9528 12.8346 12.0238 12.7994 12.0868C12.7642 12.1498 12.7135 12.2027 12.652 12.2406L8.85775 14.4349C8.79551 14.4605 8.72806 14.4708 8.66101 14.4651C8.59396 14.4594 8.52925 14.4377 8.47224 14.402C8.41524 14.3662 8.3676 14.3174 8.33327 14.2595C8.29895 14.2016 8.27893 14.1364 8.27489 14.0692Z" stroke="#919DAA" stroke-width="1.28652" stroke-linecap="round" stroke-linejoin="round"/>
</g>
<defs>
<clipPath id="clip0_1_117">
<rect width="16" height="16" fill="white" transform="translate(2 2)"/>
</clipPath>
</defs>
</svg>
